ply
format ascii 1.0
comment VTK generated PLY File
obj_info vtkPolyData points and polygons: vtk4.0
element vertex 500
property float x
property float y
property float z
element face 996
property list uchar int vertex_indices
end_header
26.1439 28.5952 20.7448 
34.0659 31.662 -7.05731 
13.7204 9.53764 30.0073 
24.4498 23.9712 25.1857 
-1.2238 22.5035 -11.659 
-18.9071 22.2381 20.0292 
26.9234 14.1144 22.4665 
-17.1218 24.2897 15.9516 
34.7526 -5.46041 0.963427 
26.0483 34.0827 20.4266 
-16.1553 15.9501 21.8401 
19.7701 5.59501 23.266 
28.8837 8.53124 30.9301 
39.4179 -5.51387 35.0147 
21.1344 24.2648 31.6268 
4.13429 37.2618 2.90548 
34.6895 -3.92381 -4.46396 
-13.4385 11.2761 23.0226 
-0.721068 36.6191 6.42432 
41.2436 -0.0323789 13.9025 
20.6596 13.8834 -22.5135 
-4.03518 7.51282 -4.14172 
26.1641 36.7158 9.68358 
39.567 12.2898 24.9807 
29.3979 -6.45883 32.8106 
38.9185 3.24868 25.3678 
32.51 -1.89165 -15.7341 
-16.1022 26.0621 13.8159 
39.3963 29.4006 -3.9182 
-5.3582 36.3001 6.31429 
27.6419 18.6196 -24.6778 
17.475 37.1653 21.3228 
-17.2415 11.8941 8.62969 
33.7236 -3.49339 -8.79377 
25.745 21.721 26.8219 
-8.71861 33.2923 10.4624 
38.992 3.41726 31.6389 
36.4018 -1.91692 26.9972 
37.1414 2.85453 -15.4741 
52.3618 15.2793 -0.0678428 
34.73 -2.90947 14.6633 
25.151 39.3303 12.4801 
-8.59882 6.41043 19.5459 
41.1285 9.94125 22.6914 
43.1813 14.734 -23.3732 
34.3014 -9.33253 35.136 
49.0535 11.938 -1.51099 
22.5982 25.9082 24.446 
15.1247 5.47416 -6.42463 
26.7728 36.7109 13.264 
-6.87726 33.8907 -3.6025 
22.4131 9.25669 24.2619 
45.1695 22.8593 8.58009 
47.4632 22.6863 2.26035 
4.10202 36.8321 13.3619 
38.3009 -6.52831 29.2391 
46.6068 4.3337 9.76258 
-15.7964 21.7558 0.456643 
27.7673 -3.21391 36.1277 
-10.4574 31.7185 -2.8322 
-20.6276 19.2817 12.1863 
5.17794 34.8629 18.4682 
22.8097 24.6352 28.5959 
19.2465 36.0947 -2.66985 
-10.1615 13.567 -1.33975 
32.0589 -0.905604 20.2605 
51.6826 16.3781 -6.88053 
24.4684 38.974 9.48351 
38.6241 2.39515 19.222 
26.5661 36.2074 17.3791 
29.6233 20.9995 16.6631 
-2.12008 33.5252 -3.72908 
39.7697 -7.03225 32.1716 
-18.9873 24.4087 8.02508 
28.9863 -2.71398 -9.71923 
8.66146 0.69724 14.4595 
20.4352 38.6528 19.7189 
32.7396 -1.34693 24.4728 
0.00718395 5.56344 -3.2758 
24.9621 39.2931 14.9619 
32.2082 -8.39358 33.0648 
26.3958 -4.07834 4.50845 
24.3239 -0.729549 19.8215 
34.7621 22.7748 16.2864 
20.1915 8.19004 -20.6711 
21.8112 14.4869 36.1335 
-20.4609 21.3809 9.50634 
29.3757 16.4625 21.2232 
-17.754 28.3304 9.36329 
24.1497 14.5628 25.6454 
-14.7144 30.1848 -0.935562 
-5.40427 36.1747 2.47779 
25.7432 17.3337 24.1158 
28.6857 -1.85957 22.8902 
13.1501 21.5635 33.5654 
-9.41187 33.6599 5.64802 
9.0053 4.27274 25.4988 
14.1924 36.4802 21.2741 
48.8731 15.888 -14.6049 
15.5587 39.361 17.3107 
26.5783 16.4833 21.5235 
20.5142 -0.199407 4.01105 
32.5002 -5.91247 -2.05739 
23.5075 14.4991 32.1844 
-13.8303 31.1874 3.07952 
46.0245 15.6877 -20.139 
42.2476 0.391052 7.0607 
51.709 13.9688 4.55509 
15.9508 10.69 32.6276 
-19.7922 19.1555 16.4124 
22.4897 12.5966 24.8788 
24.4047 26.467 21.6339 
12.3815 23.3884 -17.2144 
2.69162 1.08876 8.02593 
24.1666 36.7797 20.7171 
24.0509 34.4722 -5.55158 
18.2603 10.5379 30.2652 
43.3045 9.69559 18.8404 
29.0787 2.58899 -23.7956 
38.7598 21.2196 18.7571 
30.906 -6.79123 6.19063 
-13.1968 9.20633 7.84208 
-9.98713 33.1092 0.416054 
-9.77481 5.61741 15.957 
47.2039 23.3308 -6.49692 
36.459 -8.95517 32.0127 
-5.33522 35.3863 -1.26299 
-18.3457 25.0237 4.11587 
21.7915 11.4294 31.7844 
-14.2623 17.6532 24.0236 
22.5235 25.0038 -20.5255 
24.6299 22.5721 34.0267 
39.2102 5.36941 27.9401 
25.6554 3.68559 35.333 
32.4172 -4.83636 12.0244 
7.54467 35.5706 -2.77531 
18.0613 12.2879 38.1135 
36.1681 -5.02581 10.7878 
-3.86778 29.6914 -5.3766 
-7.00146 20.8222 -6.20026 
33.4892 -2.55067 -12.3848 
28.1847 32.4407 15.3938 
39.2059 29.2342 0.297987 
18.5402 40.0349 10.0606 
51.1285 13.9103 7.456 
19.4131 0.871408 17.4099 
33.0065 1.83081 36.567 
25.3543 6.287 32.3718 
8.02087 17.0336 32.8386 
25.5917 21.8107 31.6571 
29.5684 -5.66674 35.3953 
-4.56358 10.0761 -7.49648 
39.7787 0.561307 0.882585 
20.0181 11.2137 37.3522 
5.56119 0.548965 12.0217 
24.7265 14.085 22.9519 
24.4636 23.4491 32.7451 
20.7738 17.7118 38.4753 
-13.3095 14.388 23.9346 
18.2332 10.6101 35.0571 
51.215 19.103 -4.81445 
28.5888 -4.23924 10.1654 
36.3952 0.630117 24.2649 
38.7071 -0.50256 34.4224 
-16.597 27.6972 -0.385957 
31.739 10.3295 29.1184 
25.124 23.9378 21.32 
-0.961717 12.9268 27.1226 
28.2241 31.1601 5.71708 
31.9889 -7.07368 36.0826 
40.1996 -2.12425 8.85526 
1.83686 10.7591 -12.1328 
30.5403 -4.36766 36.5323 
-14.7807 28.2255 -3.24915 
11.2828 31.0065 22.0181 
-0.185398 30.6053 -6.19002 
21.1422 35.9807 21.6128 
6.6675 11.9427 29.7663 
-7.46542 10.016 -2.2712 
33.234 7.4887 31.6183 
38.8383 3.65548 22.2614 
-13.0018 24.9039 -4.19901 
34.5703 20.2417 20.016 
22.6292 28.1926 21.9408 
10.374 38.734 15.7555 
14.9574 7.01296 -11.7524 
40.7501 -1.61304 31.5478 
36.1657 2.87325 35.0975 
49.2874 10.5956 4.58941 
9.61128 11.2492 -13.982 
9.11574 26.8668 -14.3669 
30.8543 -2.30912 16.115 
11.9853 14.6708 -17.1404 
39.4696 2.87865 28.1533 
25.8386 33.7056 6.44205 
15.281 12.999 36.7191 
13.556 39.8295 7.44475 
35.6191 20.913 -23.1715 
16.1362 3.92707 -0.919649 
25.9034 34.0994 2.22862 
-8.73074 23.7033 20.7759 
42.7222 26.7995 -6.6407 
28.1537 6.65055 -24.7399 
19.5852 11.0402 26.5837 
31.5245 -4.7104 -5.63472 
31.617 0.075935 -22.2192 
33.1704 -6.70201 9.06436 
31.8455 24.6047 -20.4555 
39.8755 6.61591 24.1092 
5.79141 6.82363 27.7722 
21.9298 11.2808 24.3661 
44.2621 13.1341 -21.5705 
26.9028 -4.24391 33.1313 
7.98261 23.2277 28.2869 
-14.4467 12.8016 3.8159 
39.7671 -3.01779 28.2325 
41.261 6.00493 19.7748 
23.204 0.269303 27.7542 
38.7957 18.4448 21.8774 
8.90418 1.65329 19.2474 
43.8556 26.5194 -1.16441 
24.9634 23.3747 29.0422 
-4.58857 23.2035 23.3109 
30.1718 -3.12691 26.3093 
40.6297 -4.23204 30.29 
18.4176 0.483358 12.2866 
9.63051 20.5733 32.4226 
6.17591 9.64698 -10.7587 
-4.88691 28.994 18.0051 
39.0442 18.6379 -23.4004 
28.2382 29.3187 12.7068 
32.4286 -7.06803 2.84341 
18.5892 27.63 24.1373 
44.1521 20.6996 14.0026 
27.9887 23.314 15.6592 
23.3724 2.52987 33.2989 
-6.41767 9.07243 24.0565 
20.8129 38.3164 6.49129 
-5.26054 5.89568 1.07784 
-19.0631 17.2477 6.93057 
-5.85922 35.2611 10.0871 
21.6536 0.756469 21.2809 
38.6918 28.2036 -9.98255 
37.3957 -7.76291 36.0176 
-18.4071 24.7345 12.2555 
-3.14578 8.68315 25.5323 
-7.71381 20.9515 23.6839 
25.7225 8.96806 28.5212 
27.7442 30.7949 20.0341 
24.8002 38.5869 17.9133 
-9.9136 9.33209 22.7991 
24.1278 32.4071 21.6104 
2.17134 34.7444 -2.68264 
19.8279 14.8695 38.7573 
-20.3483 22.04 17.1487 
41.0469 12.4073 -24.3697 
31.1659 20.8714 -24.1899 
38.2224 15.6155 -24.7542 
30.8237 33.144 -2.69398 
24.3045 -1.41766 30.9852 
-19.4486 16.4761 9.45961 
21.8787 20.1918 37.2508 
-14.3674 8.2799 16.4942 
-6.02557 3.05698 10.7335 
25.169 34.7603 -1.20001 
-12.0104 29.169 -4.61262 
-6.82353 14.4048 -7.34101 
37.9408 1.3161 -7.98913 
13.2777 3.79961 23.6755 
8.66178 39.0374 10.7173 
35.9493 25.6275 11.3545 
-18.4706 20.7625 4.94315 
52.3284 16.2127 -3.29678 
4.12742 3.94748 23.4961 
33.4684 4.47064 -24.6796 
22.7416 12.9029 28.0581 
19.0394 3.23358 21.7212 
-8.43568 30.6736 -4.6606 
35.9555 -0.324811 17.6707 
23.875 35.9991 6.61859 
28.1487 26.6972 13.67 
15.4616 30.8834 21.8632 
26.5021 18.9002 20.6839 
22.0112 22.6843 34.8892 
5.69342 12.1214 -13.8766 
18.2753 0.553749 7.69193 
16.187 12.7583 -19.7133 
39.1672 -2.3707 12.7508 
-18.2818 28.5314 5.91425 
26.2836 22.6825 -22.262 
26.9813 20.5048 18.5329 
10.8032 35.7711 20.931 
22.8041 -0.679432 -5.19168 
6.51436 7.19814 -5.01321 
29.3758 27.0341 11.3697 
40.607 -3.4262 33.3678 
30.0834 24.2671 13.742 
19.7096 2.54671 -9.78433 
-17.8423 28.4688 2.5459 
37.0985 8.73447 29.181 
29.7677 -6.20884 0.948858 
32.7704 -0.956939 -19.031 
0.139752 7.59558 -7.78545 
-1.45867 1.82451 6.57556 
40.774 9.21894 -21.0478 
44.1994 2.80517 13.7598 
26.5186 26.1995 17.6632 
19.7445 33.152 -10.947 
22.7504 19.4828 -22.7271 
48.4238 8.48672 7.51805 
10.0816 8.38434 -9.26022 
-0.971803 1.20789 12.5697 
28.5738 5.80821 34.6117 
12.3796 24.8197 28.4715 
41.6318 14.7282 21.6943 
14.498 1.18503 16.7416 
18.125 19.7344 37.3414 
52.164 16.305 2.60275 
-18.2523 20.4392 21.5247 
-18.5636 14.9399 13.276 
45.7419 23.5447 -10.7966 
37.8138 15.4077 24.6519 
0.356534 6.25345 24.8572 
12.9045 18.7438 -17.984 
17.6299 5.72444 23.6152 
-8.22883 11.9018 24.3737 
21.4989 11.0588 34.8714 
28.0125 29.2488 16.7851 
7.65103 33.8519 20.963 
34.6504 17.8417 23.1008 
2.70233 31.1724 20.7482 
-13.0274 31.2783 9.21884 
37.2225 -4.14813 6.17233 
3.39006 37.4985 8.55236 
-16.3479 11.4169 16.7659 
29.6394 11.978 26.8994 
-4.1394 18.8422 -10.7267 
16.0729 27.2683 -16.3597 
27.4361 32.569 9.90678 
11.7773 6.1635 27.5647 
13.6406 1.17566 9.57205 
-3.71823 32.9938 14.5033 
16.5113 23.1945 -18.9887 
30.3956 32.6661 1.03197 
24.5191 31.899 -12.7487 
24.2443 11.5601 23.6318 
10.0705 9.7906 29.8393 
0.748353 20.5308 26.4617 
23.6251 19.9362 35.5255 
-14.2139 9.62946 20.3794 
-11.8461 20.5755 -3.50511 
34.9015 29.7416 3.84873 
23.7339 -0.487691 24.1615 
21.5779 36.4146 1.98418 
13.4526 10.1915 -15.4285 
-10.5203 30.4583 12.988 
25.7846 -2.05019 26.1787 
34.9773 -1.26002 36.5045 
1.2833 9.37651 27.4056 
-0.508409 26.2818 22.8383 
39.7197 24.4745 -16.8573 
20.1941 7.84848 23.9486 
22.2173 4.16153 -19.3362 
-15.9604 9.65018 12.4059 
25.5693 10.3559 -24.584 
31.928 28.0564 8.44834 
-4.8636 3.09858 16.1682 
-20.8384 21.983 13.5815 
21.4132 29.1724 -16.3025 
0.103223 33.3199 16.8828 
28.3063 -1.65086 18.1714 
11.0175 17.7349 34.7759 
51.2077 19.075 -0.735208 
-11.5505 20.4799 23.6438 
-6.94392 25.7585 -5.09916 
34.1283 31.8651 -0.83194 
14.6441 19.2957 36.2144 
-0.812769 36.0667 1.36131 
28.9738 18.1268 19.2115 
39.1169 0.583138 27.3408 
23.1402 5.89169 29.1685 
18.1421 19.0878 -21.6141 
10.0134 31.7975 -9.95569 
-12.1627 25.2488 17.2624 
-8.31557 16.8051 24.2878 
27.5541 -3.96728 28.9979 
15.2605 32.7481 -10.9603 
34.7995 -7.42592 29.4786 
-8.99147 17.1201 -4.44097 
4.36683 31.9644 -6.71982 
39.0469 8.58636 27.0319 
40.0813 22.6815 15.8974 
22.5229 3.24191 29.8741 
47.9264 16.664 -17.4446 
25.3546 18.0797 29.314 
-2.65954 25.3078 -8.01417 
-0.888955 18.8176 -13.5858 
33.3846 -3.86352 27.3399 
6.60719 16.3766 -15.1901 
-14.9015 21.9161 21.9017 
36.7287 11.8551 27.7406 
5.31354 25.8205 24.708 
-1.67312 35.5475 10.9152 
49.8001 17.8269 6.40452 
36.4427 4.74781 -21.7351 
1.41329 27.9864 -9.22368 
2.39688 1.8614 17.1377 
36.0728 0.890794 20.3677 
38.7003 26.9718 7.44474 
50.7461 18.9014 -9.29681 
43.46 25.7347 3.82658 
11.7012 5.8578 -2.60768 
47.6603 7.43589 12.1693 
43.8862 6.20922 -2.0015 
7.16086 29.8795 22.3205 
31.3804 30.9785 -11.7936 
43.8157 10.4974 -15.765 
28.4945 29.7078 8.95014 
-11.128 6.28453 11.691 
21.9757 6.65208 25.9159 
16.8468 9.56568 28.0624 
25.7056 -1.57925 13.8829 
9.84142 27.2507 24.9789 
25.8225 20.9507 23.432 
8.12111 1.27999 9.24433 
38.2063 9.9204 -24.6411 
50.5049 16.3335 -10.5995 
6.43506 21.8849 -15.1583 
12.832 40.0606 12.5774 
18.1176 25.6929 27.9855 
37.2956 6.3879 30.6314 
49.5489 18.2621 -13.1406 
34.2354 -6.75091 5.96598 
-10.4306 9.42892 2.74455 
6.50375 4.57771 1.70731 
41.8864 19.0633 18.5394 
-9.47947 21.889 -4.84783 
45.1877 5.637 4.04119 
22.8672 -1.33103 8.69114 
14.5838 27.7643 24.5946 
16.388 2.38256 20.1314 
44.2918 21.1445 -17.2711 
-3.28505 5.02232 21.0602 
21.0282 39.9991 14.7902 
45.0683 7.7394 16.0643 
47.8018 17.6941 10.9596 
27.0148 0.881383 -19.1684 
33.1739 14.8516 25.7542 
2.29408 16.0517 -14.5791 
8.33856 38.7317 5.50776 
36.2587 -9.37284 34.7326 
4.87306 15.5269 29.7428 
34.4947 18.2024 -24.7482 
-4.82239 13.8138 26.2695 
32.9506 4.73156 35.238 
13.3699 34.9845 -6.2242 
30.8841 -6.16105 29.6815 
19.2682 30.2275 21.7735 
17.7697 7.0451 -16.8225 
-15.9271 19.6319 23.5013 
-16.4652 17.6757 2.80142 
5.61065 19.6871 29.4636 
12.2206 37.3004 -0.215522 
-3.11208 18.5025 26.1752 
35.8286 7.38447 -24.693 
17.4291 15.8062 38.7428 
45.0143 9.33123 -7.85094 
24.7705 -0.764985 34.7954 
42.9637 0.395752 11.1346 
21.4614 2.98095 25.3658 
40.534 0.533533 29.9521 
28.0781 33.3054 -7.59652 
-2.40202 10.8927 -10.6053 
9.96736 14.2243 33.6155 
34.8009 27.5456 -15.7378 
25.1448 15.1294 -24.7101 
-4.162 14.6722 -11.0948 
25.5299 4.5947 -22.9825 
1.47205 16.7768 28.1803 
40.8331 24.4645 11.6771 
26.2731 -3.82343 -0.99709 
4.20383 25.4763 -13.6777 
17.0246 22.8999 33.4578 
29.2941 3.5671 36.3811 
16.3181 38.2654 3.25812 
27.2064 0.0693216 36.4967 
49.6651 11.8483 9.99739 
36.1053 -4.88764 36.549 
13.19 15.0763 36.1483 
25.0896 -0.00954915 -13.6413 
1.74313 21.7544 -14.5333 
15.2199 2.9071 3.79258 
12.8933 11.6761 33.1266 
27.618 28.542 -17.0127 
-15.4846 29.1343 11.1026 
44.1528 15.1916 17.8657 
47.1435 14.1451 14.0234 
-7.36689 4.40164 7.78163 
-0.0516795 3.61084 1.65841 
32.9524 1.56597 -23.9484 
3 118 499 205 
3 118 477 202 
3 499 118 274 
3 274 118 202 
3 404 274 464 
3 202 477 364 
3 464 274 202 
3 364 84 20 
3 304 425 255 
3 202 364 475 
3 464 202 452 
3 452 202 475 
3 257 464 452 
3 425 464 257 
3 364 20 475 
3 255 425 257 
3 44 211 255 
3 452 475 30 
3 475 20 308 
3 44 255 257 
3 44 257 229 
3 30 475 308 
3 452 30 256 
3 257 452 229 
3 229 452 197 
3 30 308 289 
3 197 452 256 
3 256 30 289 
3 301 205 499 
3 205 446 118 
3 301 499 404 
3 446 362 477 
3 118 446 477 
3 499 274 404 
3 477 362 84 
3 464 304 404 
3 477 84 364 
3 464 425 304 
3 84 286 20 
3 255 211 304 
3 211 44 105 
3 20 286 381 
3 20 381 308 
3 441 105 44 
3 441 44 229 
3 130 381 342 
3 308 381 130 
3 289 308 130 
3 256 207 197 
3 207 256 289 
3 26 446 301 
3 301 446 205 
3 301 404 38 
3 38 404 304 
3 362 458 84 
3 458 354 286 
3 84 458 286 
3 304 211 416 
3 105 416 211 
3 286 192 323 
3 381 286 323 
3 393 105 441 
3 381 323 342 
3 229 360 441 
3 342 323 112 
3 229 197 360 
3 197 207 360 
3 360 207 474 
3 130 493 289 
3 289 493 207 
3 130 342 337 
3 130 337 368 
3 493 130 368 
3 489 446 26 
3 301 38 26 
3 446 489 362 
3 304 416 38 
3 189 192 354 
3 286 354 192 
3 416 105 393 
3 98 416 393 
3 189 398 192 
3 192 398 323 
3 98 393 431 
3 323 398 112 
3 112 398 427 
3 441 431 393 
3 112 427 190 
3 112 337 342 
3 337 112 190 
3 493 474 207 
3 474 493 415 
3 493 368 344 
3 74 26 140 
3 489 26 74 
3 26 38 140 
3 489 297 362 
3 362 297 458 
3 458 297 185 
3 458 185 354 
3 284 171 448 
3 189 284 398 
3 448 476 396 
3 284 448 398 
3 448 396 490 
3 398 448 427 
3 427 448 490 
3 490 396 4 
3 320 431 441 
3 427 490 481 
3 360 320 441 
3 190 427 481 
3 474 242 360 
3 337 190 386 
3 382 386 190 
3 368 337 386 
3 415 493 344 
3 368 386 307 
3 344 368 307 
3 74 140 33 
3 38 267 140 
3 38 466 267 
3 466 38 416 
3 354 185 189 
3 185 310 189 
3 189 310 227 
3 284 227 171 
3 189 227 284 
3 98 466 416 
3 448 171 476 
3 171 472 476 
3 431 426 98 
3 396 476 336 
3 409 426 431 
3 396 336 4 
3 320 409 431 
3 490 4 481 
3 481 4 405 
3 360 242 320 
3 201 320 242 
3 389 481 405 
3 190 481 382 
3 415 242 474 
3 481 389 382 
3 242 415 1 
3 415 344 471 
3 74 33 204 
3 74 292 489 
3 33 140 267 
3 489 292 297 
3 297 48 185 
3 48 310 185 
3 302 227 293 
3 302 151 472 
3 227 302 171 
3 171 302 472 
3 472 151 266 
3 472 266 476 
3 426 466 98 
3 476 266 336 
3 409 66 426 
3 139 336 266 
3 320 124 409 
3 336 139 395 
3 4 336 395 
3 4 395 405 
3 124 320 201 
3 405 175 389 
3 1 415 471 
3 386 382 455 
3 344 307 115 
3 115 471 344 
3 307 386 455 
3 33 16 204 
3 16 33 267 
3 267 466 413 
3 302 78 21 
3 302 293 78 
3 310 48 411 
3 293 310 411 
3 302 21 151 
3 310 293 227 
3 46 466 66 
3 466 426 66 
3 266 388 139 
3 66 409 160 
3 160 409 124 
3 395 139 374 
3 395 374 138 
3 175 395 138 
3 395 175 405 
3 201 242 28 
3 242 1 28 
3 1 471 258 
3 382 389 135 
3 455 382 135 
3 455 63 307 
3 115 307 63 
3 16 102 204 
3 204 480 74 
3 74 480 292 
3 267 152 16 
3 198 48 297 
3 292 198 297 
3 267 413 152 
3 198 411 48 
3 413 466 46 
3 21 178 151 
3 151 178 266 
3 178 64 266 
3 266 64 388 
3 39 46 272 
3 272 46 66 
3 66 160 272 
3 372 272 160 
3 388 350 436 
3 388 436 139 
3 160 124 372 
3 436 350 181 
3 139 436 374 
3 436 181 374 
3 220 124 201 
3 374 181 265 
3 265 181 173 
3 374 265 277 
3 201 28 220 
3 138 374 277 
3 173 90 265 
3 277 265 59 
3 375 28 1 
3 50 138 277 
3 175 138 71 
3 50 277 59 
3 71 138 50 
3 175 252 389 
3 375 1 258 
3 175 71 252 
3 252 135 389 
3 115 264 471 
3 471 264 258 
3 71 50 126 
3 462 455 135 
3 63 455 462 
3 204 300 480 
3 102 300 204 
3 102 16 8 
3 16 152 8 
3 101 292 480 
3 292 101 198 
3 78 498 238 
3 434 498 78 
3 78 238 21 
3 434 78 293 
3 411 434 293 
3 238 178 21 
3 413 46 437 
3 178 433 64 
3 388 64 350 
3 272 372 39 
3 350 460 57 
3 124 53 372 
3 350 57 181 
3 53 124 220 
3 181 57 164 
3 181 164 173 
3 142 220 28 
3 164 90 173 
3 90 59 265 
3 142 28 375 
3 122 59 90 
3 50 59 122 
3 126 50 122 
3 252 71 377 
3 71 126 377 
3 63 264 115 
3 264 63 353 
3 135 252 15 
3 231 300 102 
3 102 8 231 
3 300 81 480 
3 101 491 198 
3 437 152 413 
3 434 411 491 
3 198 491 411 
3 238 433 178 
3 437 46 188 
3 46 107 188 
3 433 214 64 
3 46 39 107 
3 64 214 460 
3 64 460 350 
3 39 372 317 
3 53 220 410 
3 57 127 164 
3 164 127 298 
3 142 410 220 
3 164 298 90 
3 90 298 104 
3 142 375 351 
3 375 343 351 
3 122 90 104 
3 375 258 343 
3 258 264 199 
3 343 258 199 
3 126 122 91 
3 377 126 91 
3 377 15 252 
3 462 135 15 
3 462 484 63 
3 353 63 484 
3 462 15 449 
3 231 120 300 
3 231 8 432 
3 300 120 81 
3 332 432 8 
3 8 152 332 
3 81 101 480 
3 101 285 491 
3 303 498 113 
3 498 434 113 
3 152 437 106 
3 498 303 238 
3 497 433 238 
3 437 188 309 
3 107 39 317 
3 460 214 239 
3 317 372 403 
3 403 372 53 
3 460 271 57 
3 271 127 57 
3 298 127 288 
3 410 142 408 
3 408 142 351 
3 104 298 288 
3 351 343 168 
3 122 104 95 
3 168 199 194 
3 343 199 168 
3 122 95 91 
3 264 353 199 
3 377 91 18 
3 91 29 18 
3 15 377 18 
3 237 353 484 
3 484 462 449 
3 484 449 196 
3 231 432 120 
3 101 81 438 
3 152 106 332 
3 106 170 332 
3 101 438 285 
3 340 491 285 
3 424 491 340 
3 424 113 434 
3 491 424 434 
3 56 106 437 
3 303 497 238 
3 433 497 121 
3 433 121 214 
3 309 188 486 
3 121 32 214 
3 188 107 144 
3 214 32 239 
3 107 317 403 
3 144 107 403 
3 460 239 271 
3 239 86 271 
3 403 53 52 
3 271 73 127 
3 52 53 410 
3 127 73 288 
3 365 168 417 
3 104 288 331 
3 351 168 365 
3 331 95 104 
3 194 199 279 
3 91 95 29 
3 199 353 279 
3 353 237 279 
3 15 18 333 
3 333 449 15 
3 143 484 196 
3 237 484 143 
3 120 432 206 
3 432 137 206 
3 120 161 81 
3 206 161 120 
3 332 137 432 
3 332 170 137 
3 81 161 438 
3 285 438 225 
3 170 106 468 
3 303 113 311 
3 113 424 154 
3 56 468 106 
3 303 263 497 
3 309 56 437 
3 418 121 497 
3 363 32 121 
3 188 144 486 
3 32 260 239 
3 144 403 445 
3 86 260 60 
3 239 260 86 
3 403 52 445 
3 271 86 73 
3 73 86 367 
3 410 408 52 
3 52 408 479 
3 88 288 73 
3 408 365 270 
3 408 351 365 
3 294 365 417 
3 288 88 331 
3 88 494 331 
3 168 338 417 
3 168 194 338 
3 95 331 35 
3 338 194 22 
3 29 35 240 
3 95 35 29 
3 194 279 22 
3 402 29 240 
3 29 402 18 
3 18 402 333 
3 22 279 67 
3 237 67 279 
3 449 333 269 
3 67 237 143 
3 449 269 196 
3 143 196 428 
3 134 206 137 
3 161 206 134 
3 137 170 287 
3 161 421 438 
3 170 468 287 
3 113 154 311 
3 424 75 154 
3 424 340 75 
3 285 225 340 
3 311 263 303 
3 56 305 468 
3 263 418 497 
3 56 309 412 
3 418 363 121 
3 309 486 412 
3 319 32 363 
3 32 319 260 
3 486 445 496 
3 486 144 445 
3 367 86 60 
3 445 52 233 
3 233 52 479 
3 73 367 244 
3 294 296 270 
3 244 88 73 
3 270 365 294 
3 479 408 270 
3 27 88 244 
3 27 494 88 
3 417 230 294 
3 355 331 494 
3 417 338 230 
3 355 35 331 
3 141 230 338 
3 338 22 49 
3 402 54 333 
3 333 54 269 
3 67 41 22 
3 41 49 22 
3 196 269 428 
3 41 67 143 
3 137 40 134 
3 161 134 191 
3 191 134 40 
3 137 287 40 
3 191 421 161 
3 287 468 19 
3 421 225 438 
3 421 145 225 
3 340 315 75 
3 225 315 340 
3 468 305 19 
3 366 263 311 
3 366 123 263 
3 263 123 418 
3 412 444 305 
3 56 412 305 
3 418 262 363 
3 496 444 412 
3 412 486 496 
3 260 319 60 
3 109 60 319 
3 233 496 445 
3 367 60 254 
3 479 391 233 
3 367 7 244 
3 270 296 83 
3 391 270 83 
3 479 270 391 
3 244 7 27 
3 296 280 234 
3 294 280 296 
3 27 383 494 
3 383 355 494 
3 294 230 280 
3 341 35 355 
3 240 35 341 
3 402 240 341 
3 338 49 141 
3 369 402 341 
3 54 402 369 
3 184 269 54 
3 79 49 41 
3 269 184 428 
3 41 143 443 
3 41 443 79 
3 143 428 443 
3 421 191 370 
3 278 191 40 
3 40 287 278 
3 370 82 421 
3 19 278 287 
3 421 82 145 
3 19 68 278 
3 311 154 406 
3 406 154 75 
3 225 145 315 
3 219 406 75 
3 406 366 311 
3 305 68 19 
3 216 68 305 
3 444 216 305 
3 123 262 418 
3 363 262 334 
3 496 117 444 
3 363 334 319 
3 117 496 495 
3 496 233 495 
3 495 233 435 
3 60 109 254 
3 233 391 435 
3 70 234 290 
3 83 119 391 
3 296 234 70 
3 83 296 70 
3 367 254 7 
3 383 27 7 
3 280 306 234 
3 280 327 306 
3 228 355 383 
3 280 230 327 
3 230 141 327 
3 341 355 228 
3 141 49 69 
3 61 54 369 
3 54 61 184 
3 79 249 69 
3 69 49 79 
3 184 99 428 
3 443 76 249 
3 443 249 79 
3 443 428 99 
3 191 65 370 
3 65 191 278 
3 65 278 407 
3 82 241 145 
3 219 75 315 
3 68 407 278 
3 145 440 315 
3 440 219 315 
3 366 406 442 
3 123 366 42 
3 42 366 442 
3 262 123 42 
3 444 117 216 
3 42 349 262 
3 262 349 334 
3 319 334 10 
3 319 10 109 
3 318 109 10 
3 282 378 290 
3 70 290 378 
3 182 70 378 
3 254 109 318 
3 5 254 318 
3 435 391 119 
3 182 83 70 
3 119 83 182 
3 7 254 5 
3 399 7 5 
3 7 399 383 
3 290 306 166 
3 290 234 306 
3 200 228 383 
3 0 306 327 
3 330 369 228 
3 327 141 248 
3 369 341 228 
3 61 369 330 
3 248 69 9 
3 248 141 69 
3 291 61 328 
3 249 9 69 
3 291 184 61 
3 97 99 291 
3 99 184 291 
3 99 31 76 
3 114 249 76 
3 443 99 76 
3 370 93 82 
3 82 93 352 
3 65 93 370 
3 241 82 352 
3 440 145 276 
3 276 145 241 
3 406 219 273 
3 219 440 268 
3 68 180 407 
3 442 406 273 
3 68 216 180 
3 273 322 442 
3 180 216 208 
3 349 42 250 
3 236 250 42 
3 216 43 208 
3 117 43 216 
3 250 17 349 
3 117 314 43 
3 117 495 314 
3 334 349 10 
3 10 349 17 
3 100 6 87 
3 495 435 314 
3 87 378 100 
3 435 218 314 
3 378 282 100 
3 329 182 87 
3 182 378 87 
3 329 218 182 
3 435 119 218 
3 218 119 182 
3 318 399 5 
3 166 423 282 
3 282 290 166 
3 399 373 200 
3 399 200 383 
3 228 200 222 
3 166 306 111 
3 359 228 222 
3 306 0 111 
3 0 183 111 
3 330 228 359 
3 327 248 0 
3 251 457 183 
3 0 251 183 
3 248 251 0 
3 174 328 414 
3 414 328 330 
3 248 9 251 
3 328 61 330 
3 251 176 457 
3 174 291 328 
3 281 97 174 
3 97 291 174 
3 31 97 281 
3 457 31 281 
3 176 31 457 
3 114 176 251 
3 9 114 251 
3 9 249 114 
3 176 76 31 
3 114 76 176 
3 31 99 97 
3 93 77 223 
3 356 352 93 
3 77 93 65 
3 65 162 77 
3 65 407 162 
3 276 241 469 
3 407 180 162 
3 180 25 162 
3 273 219 96 
3 96 219 268 
3 11 276 469 
3 440 324 268 
3 440 276 324 
3 11 324 276 
3 25 180 208 
3 322 245 442 
3 442 236 42 
3 236 442 245 
3 11 361 324 
3 361 11 419 
3 390 208 43 
3 23 390 43 
3 236 325 250 
3 345 210 51 
3 250 325 17 
3 325 158 17 
3 345 110 210 
3 43 314 23 
3 155 110 345 
3 6 155 345 
3 89 110 155 
3 10 17 158 
3 325 384 158 
3 335 87 6 
3 87 335 447 
3 314 321 23 
3 92 89 155 
3 158 129 10 
3 6 100 155 
3 447 321 329 
3 384 129 158 
3 100 92 155 
3 447 329 87 
3 314 218 321 
3 218 329 321 
3 129 459 10 
3 384 373 129 
3 100 282 92 
3 318 10 459 
3 373 459 129 
3 246 373 384 
3 282 423 92 
3 246 463 222 
3 399 318 459 
3 373 399 459 
3 246 200 373 
3 222 347 359 
3 166 3 423 
3 222 200 246 
3 3 166 47 
3 166 111 47 
3 422 414 401 
3 47 183 232 
3 111 183 47 
3 401 330 359 
3 414 330 401 
3 174 414 422 
3 439 174 422 
3 232 281 439 
3 183 457 232 
3 281 174 439 
3 457 281 232 
3 223 385 356 
3 397 223 77 
3 93 223 356 
3 37 397 77 
3 356 217 352 
3 162 37 77 
3 379 37 162 
3 352 469 241 
3 352 217 469 
3 25 379 162 
3 193 379 25 
3 132 193 25 
3 273 96 209 
3 268 339 96 
3 469 419 11 
3 322 273 209 
3 25 208 132 
3 324 339 268 
3 390 132 208 
3 358 322 209 
3 339 324 420 
3 361 419 51 
3 322 358 245 
3 361 420 324 
3 247 51 419 
3 361 203 420 
3 361 51 210 
3 361 210 203 
3 247 345 51 
3 358 167 245 
3 245 453 236 
3 335 345 247 
3 23 400 390 
3 236 453 325 
3 167 453 245 
3 110 203 210 
3 6 345 335 
3 89 275 110 
3 23 321 400 
3 400 321 447 
3 453 384 325 
3 167 463 453 
3 478 463 167 
3 463 384 453 
3 89 92 394 
3 463 246 384 
3 478 347 463 
3 92 423 34 
3 347 222 463 
3 347 213 401 
3 423 3 34 
3 221 34 3 
3 359 347 401 
3 62 221 3 
3 422 401 213 
3 213 313 422 
3 47 429 62 
3 3 47 62 
3 313 429 439 
3 439 422 313 
3 232 439 429 
3 47 232 429 
3 387 456 397 
3 55 387 397 
3 456 385 223 
3 397 456 223 
3 55 397 37 
3 224 55 215 
3 215 55 37 
3 215 186 224 
3 259 356 385 
3 215 37 379 
3 470 186 215 
3 259 217 356 
3 470 215 379 
3 193 470 379 
3 469 217 392 
3 392 380 469 
3 469 380 419 
3 209 96 339 
3 339 346 209 
3 132 299 430 
3 420 2 339 
3 247 419 380 
3 132 390 299 
3 2 346 339 
3 346 177 209 
3 209 177 358 
3 12 335 247 
3 165 335 12 
3 299 400 165 
3 390 400 299 
3 203 116 420 
3 177 451 358 
3 203 110 275 
3 400 447 165 
3 358 451 167 
3 447 335 165 
3 451 478 167 
3 103 275 89 
3 394 103 89 
3 451 461 478 
3 92 34 394 
3 461 347 478 
3 394 34 149 
3 213 347 461 
3 34 221 149 
3 429 14 62 
3 80 387 125 
3 387 80 456 
3 55 125 387 
3 72 125 55 
3 80 24 456 
3 224 72 55 
3 24 212 385 
3 456 24 385 
3 212 259 385 
3 186 295 224 
3 259 235 217 
3 392 217 235 
3 470 193 36 
3 193 132 36 
3 380 392 235 
3 147 380 235 
3 36 132 430 
3 247 380 147 
3 12 247 147 
3 299 165 179 
3 430 299 179 
3 179 165 12 
3 420 116 2 
3 492 346 2 
3 116 108 2 
3 108 492 2 
3 116 203 128 
3 275 128 203 
3 473 177 346 
3 492 473 346 
3 128 275 103 
3 177 148 451 
3 148 177 473 
3 148 461 451 
3 348 103 394 
3 226 461 148 
3 394 149 348 
3 213 461 226 
3 313 213 226 
3 94 313 226 
3 221 156 149 
3 482 313 94 
3 14 156 62 
3 221 62 156 
3 482 429 313 
3 14 429 482 
3 45 125 450 
3 45 80 125 
3 450 125 72 
3 24 150 212 
3 72 224 13 
3 13 224 295 
3 259 212 467 
3 186 163 295 
3 259 467 235 
3 186 470 163 
3 470 36 163 
3 36 187 163 
3 133 147 235 
3 36 430 187 
3 312 147 133 
3 187 430 454 
3 430 179 454 
3 454 179 312 
3 312 12 147 
3 179 12 312 
3 159 108 116 
3 116 326 159 
3 116 128 326 
3 128 103 326 
3 85 326 103 
3 371 148 473 
3 348 85 103 
3 371 226 148 
3 94 226 371 
3 348 149 131 
3 131 149 156 
3 283 14 482 
3 131 156 283 
3 156 14 283 
3 80 45 169 
3 450 243 45 
3 450 72 243 
3 24 80 169 
3 24 169 150 
3 243 169 45 
3 72 13 243 
3 243 487 169 
3 169 172 150 
3 13 487 243 
3 487 172 169 
3 212 150 58 
3 172 58 150 
3 487 357 172 
3 163 357 487 
3 13 163 487 
3 295 163 13 
3 212 58 467 
3 58 485 467 
3 172 485 58 
3 357 146 172 
3 146 485 172 
3 163 187 357 
3 146 483 485 
3 187 146 357 
3 467 133 235 
3 485 133 467 
3 483 133 485 
3 146 454 483 
3 187 454 146 
3 483 312 133 
3 454 312 483 
3 153 159 326 
3 108 195 492 
3 108 159 195 
3 136 195 159 
3 153 136 159 
3 488 492 195 
3 326 85 153 
3 492 488 473 
3 473 488 371 
3 376 371 488 
3 348 157 85 
3 348 261 157 
3 94 371 376 
3 261 283 316 
3 482 94 376 
3 482 376 316 
3 348 283 261 
3 283 482 316 
3 131 283 348 
3 153 253 136 
3 153 85 253 
3 136 465 195 
3 253 465 136 
3 465 488 195 
3 253 85 157 
3 253 157 465 
3 488 465 376 
3 316 376 465 
3 157 316 465 
3 157 261 316 
